<?xml version="1.0" encoding="utf-8"?>
<!-- Generator: Adobe Illustrator 27.5.0, SVG Export Plug-In . SVG Version: 6.00 Build 0)  -->
<svg version="1.1" xmlns="http://www.w3.org/2000/svg" xmlns:xlink="http://www.w3.org/1999/xlink" x="0px" y="0px"
	 viewBox="0 0 500 500" style="enable-background:new 0 0 500 500;" xml:space="preserve">
<g id="BACKGROUND">
	<g>
		<rect style="fill:#00000000;" width="500" height="500"/>
		<path style="opacity:0.51;fill:#FFFFFF;" d="M412.333,445.251c18.002-14.788,27.212-39.561,23.244-62.517
			c-5.576-32.257-34.352-58.004-35.51-90.719c-0.705-19.901,9.056-38.445,17.513-56.474c9.631-20.531,17.949-41.996,20.657-64.511
			s-0.6-46.335-12.79-65.458c-12.189-19.123-34.104-32.693-56.751-31.511c-11.078,0.578-21.695,4.483-32.646,6.254
			c-61.668,9.97-118.237-47.772-180.36-41.203c-25.115,2.656-48.842,16.469-63.553,36.997
			c-14.71,20.528-20.164,47.437-14.606,72.072c6.628,29.382,27.82,54.822,29.675,84.885c1.274,20.652-6.858,40.696-16.337,59.088
			c-9.479,18.392-20.562,36.251-25.992,56.216c-5.431,19.965-4.278,43.106,8.933,59.031c18.02,21.723,50.982,22.672,78.692,17.308
			c27.71-5.364,56.003-15.217,83.457-8.666c19.149,4.569,35.458,16.641,52.465,26.557c16.297,9.502,33.746,16.353,52.875,14.297
			c7.338-0.789,13.966,2.075,21.207,2.861c8.281,0.899,16.723,0.245,24.778-1.864C396.4,455.507,405.043,451.24,412.333,445.251z"/>
	</g>
</g>
<g id="OBJECTS">
	<g>
		<g>
			<g>
				<g>
					<g>
						<path style="fill:#FFCEB6;" d="M233.422,244.93l-9.272,1.098c-11.275,1.335-19.682,11.031-19.406,22.381l1.313,54.042
							c0.301,12.39,8.449,23.217,20.272,26.937l6.624,2.084c5.144,1.618,10.505,2.442,15.897,2.442h42.715
							c4.297,0,8.417-1.707,11.456-4.745l0,0c5.985-5.985,6.354-15.567,0.848-21.995L233.422,244.93z"/>
						<path style="fill:#FFCEB6;" d="M239.057,349.493L227.35,452.62c-0.141,1.238,0.749,2.355,1.986,2.495
							c1.205,0.137,2.297-0.708,2.483-1.895l15.923-102.561c0.371-2.392-1.266-4.632-3.658-5.003s-4.632,1.267-5.003,3.658
							C239.073,349.369,239.063,349.44,239.057,349.493z"/>
						<path style="fill:#FFCEB6;" d="M280.151,350.66l15.923,102.561c0.191,1.231,1.344,2.074,2.575,1.883
							c1.198-0.186,2.029-1.289,1.895-2.483l-11.707-103.127c-0.273-2.405-2.444-4.133-4.849-3.86
							c-2.405,0.273-4.133,2.444-3.86,4.849C280.133,350.536,280.143,350.607,280.151,350.66z"/>
					</g>
				</g>
			</g>
			<g>
				<g>
					<g>
						<g>
							<path style="fill:#00AAD1;" d="M260.969,107.405h-2.668c-0.528,0-0.957-0.428-0.957-0.957V88.015
								c0-0.529,0.428-0.957,0.957-0.957h2.668c0.528,0,0.957,0.428,0.957,0.957v18.433
								C261.926,106.977,261.498,107.405,260.969,107.405z"/>
							<path style="fill:#00AAD1;" d="M249.462,98.566v-2.668c0-0.529,0.428-0.957,0.957-0.957h18.433
								c0.529,0,0.957,0.428,0.957,0.957v2.668c0,0.528-0.428,0.957-0.957,0.957h-18.433
								C249.89,99.523,249.462,99.094,249.462,98.566z"/>
						</g>
					</g>
					<g>
						<path style="fill:#00AAD1;" d="M297.678,102.832c-2.536,2.536-6.648,2.536-9.184,0c-2.536-2.536-2.536-6.648,0-9.184
							c2.536-2.536,6.648-2.536,9.184,0C300.214,96.184,300.214,100.296,297.678,102.832z"/>
						
							<line style="fill:none;stroke:#05C3D9;stroke-width:1.1818;stroke-linecap:round;stroke-miterlimit:10;" x1="296.55" y1="94.776" x2="289.623" y2="101.704"/>
					</g>
					<g>
						<path style="fill:#FFFFFF;" d="M241.144,46.128c-2.931-2.067-3.631-6.119-1.564-9.05c2.067-2.931,6.119-3.631,9.05-1.564
							c2.931,2.067,3.631,6.119,1.564,9.05C248.126,47.494,244.074,48.195,241.144,46.128z"/>
						
							<line style="fill:none;stroke:#05C3D9;stroke-width:1.1818;stroke-linecap:round;stroke-miterlimit:10;" x1="248.889" y1="43.644" x2="240.883" y2="37.998"/>
					</g>
					<g>
						<path style="fill:#FFFFFF;" d="M278.737,69.924l-5.101-5.159l6.247-6.176l5.101,5.16c1.708,1.728,1.684,4.511-0.036,6.211
							c-0.864,0.854-1.986,1.277-3.113,1.263C280.708,71.224,279.591,70.788,278.737,69.924z"/>
						<path style="fill:#05C3D9;" d="M273.637,64.765l-5.101-5.159c-1.7-1.72-1.692-4.503,0.036-6.211
							c1.72-1.7,4.511-1.684,6.211,0.036l5.101,5.159L273.637,64.765z"/>
					</g>
					<g>
						<path style="fill:#00AAD1;" d="M211.112,116.206l3.158-6.532l7.908,3.824l-3.158,6.532c-1.057,2.187-3.689,3.095-5.866,2.042
							c-1.094-0.529-1.867-1.445-2.23-2.512C210.546,118.498,210.584,117.299,211.112,116.206z"/>
						<path style="fill:#FFFFFF;" d="M214.271,109.674l3.158-6.532c1.053-2.177,3.679-3.1,5.866-2.042
							c2.177,1.053,3.095,3.689,2.042,5.866l-3.158,6.531L214.271,109.674z"/>
					</g>
					<g>
						
							<ellipse transform="matrix(0.3801 -0.925 0.925 0.3801 28.6811 319.9513)" style="fill:#FFFFFF;" cx="253.031" cy="138.579" rx="22.487" ry="22.487"/>
						
							<ellipse transform="matrix(0.3801 -0.925 0.925 0.3801 28.6811 319.9513)" style="fill:#FFFFFF;" cx="253.031" cy="138.579" rx="22.487" ry="22.487"/>
						<g style="opacity:0.75;">
							<g>
								<path style="fill:#05C3D9;" d="M250.107,136.821c-0.178,0-0.357-0.061-0.502-0.187c-0.32-0.277-0.355-0.762-0.078-1.082
									l3.484-4.027l3.521,4.023c0.279,0.319,0.247,0.804-0.072,1.083c-0.316,0.279-0.803,0.248-1.082-0.072l-2.36-2.697
									l-2.33,2.693C250.536,136.731,250.321,136.821,250.107,136.821z"/>
								<path style="fill:#05C3D9;" d="M253.03,133.892c-0.424,0-0.767-0.344-0.767-0.767v-9.649c0-0.424,0.343-0.767,0.767-0.767
									c0.424,0,0.767,0.344,0.767,0.767v9.649C253.798,133.548,253.455,133.892,253.03,133.892z"/>
							</g>
							<g>
								<g>
									<path style="fill:#00AAD1;" d="M240.379,136.335c1.341-3.294,3.697-6.166,6.665-8.124c0.697-0.46,1.548-0.885,2.337-0.61
										c0.907,0.317,1.273,1.383,1.487,2.319c0.678,2.959,1.039,5.99,1.076,9.025c0.022,1.815-0.093,3.709-0.984,5.29
										c-0.849,1.507-2.305,2.557-3.715,3.559c-1.249,0.887-2.54,1.783-4.001,2.285c-0.94,0.323-2.028,0.512-2.708-0.38
										c-0.318-0.418-0.505-0.929-0.666-1.424c-0.248-0.759-0.429-1.541-0.559-2.329c-0.253-1.524-0.303-3.081-0.155-4.618
										c0.147-1.533,0.491-3.047,1.027-4.49C240.246,136.669,240.311,136.502,240.379,136.335z"/>
									<path style="fill:#00AAD1;" d="M265.683,136.335c-1.341-3.294-3.697-6.166-6.665-8.124c-0.697-0.46-1.548-0.885-2.337-0.61
										c-0.907,0.317-1.273,1.383-1.487,2.319c-0.678,2.959-1.039,5.99-1.076,9.025c-0.022,1.815,0.093,3.709,0.984,5.29
										c0.849,1.507,2.305,2.557,3.715,3.559c1.25,0.887,2.54,1.783,4.001,2.285c0.94,0.323,2.028,0.512,2.708-0.38
										c0.318-0.418,0.504-0.929,0.666-1.424c0.248-0.759,0.429-1.541,0.559-2.329c0.253-1.524,0.303-3.081,0.155-4.618
										c-0.147-1.533-0.491-3.047-1.027-4.49C265.815,136.669,265.75,136.502,265.683,136.335z"/>
								</g>
							</g>
						</g>
					</g>
					<g>
						
							<ellipse transform="matrix(0.9259 -0.3779 0.3779 0.9259 -10.2326 90.7622)" style="fill:#FFFFFF;" cx="226.162" cy="71.456" rx="20.74" ry="20.74"/>
						<g>
							<path style="fill:#05C3D9;" d="M238.131,71.742l-0.968,1.357l-0.521,0.736l-1.332,1.879l-7.398,10.444
								c-0.853,1.2-2.64,1.2-3.493,0l-7.407-10.444l-1.332-1.879l-0.521-0.736l-0.96-1.357c-2.913-4.105-0.695-10.146,4.287-10.85
								c0.356-0.05,0.72-0.075,1.084-0.075c2.805,0,5.255,1.498,6.596,3.741c1.341-2.243,3.782-3.741,6.588-3.741
								c0.372,0,0.736,0.025,1.092,0.075C238.818,61.596,241.036,67.637,238.131,71.742z"/>
							<path style="fill:#FFFFFF;" d="M237.163,73.1l-0.521,0.736h-4.113l-2.226,2.607c-0.066,0.083-0.174,0.132-0.273,0.132
								c-0.041,0-0.075-0.008-0.108-0.017c-0.141-0.041-0.248-0.165-0.265-0.314l-0.861-7.274l-1.953,6.455
								c-0.05,0.157-0.19,0.265-0.356,0.265c-0.166,0-0.306-0.108-0.356-0.265l-1.241-4.32l-1.639,5.214
								c-0.05,0.157-0.199,0.257-0.364,0.257c-0.166-0.008-0.306-0.124-0.339-0.281l-1.456-5.942l-1.101,3.236
								c-0.05,0.149-0.19,0.248-0.348,0.248h-3.964l-0.521-0.736h4.221l1.415-4.188c0.058-0.149,0.174-0.257,0.364-0.248
								c0.166,0.008,0.306,0.124,0.348,0.281l1.44,5.892l1.606-5.123c0.05-0.157,0.19-0.257,0.356-0.257
								c0.166,0,0.306,0.108,0.348,0.265l1.241,4.295l2.102-6.952c0.058-0.166,0.215-0.273,0.389-0.265
								c0.174,0.017,0.314,0.157,0.331,0.323l0.977,8.201l1.779-2.094c0.066-0.083,0.174-0.132,0.281-0.132H237.163z"/>
						</g>
					</g>
				</g>
				<g>
					<path style="fill:#00AAD1;" d="M278.567,248.276c-6.859-3.568-13.794-6.949-20.728-10.333l-10.448-4.96l-5.227-2.473
						l-1.312-0.605l-0.295-0.139l-0.151-0.083l-0.293-0.178c-0.385-0.245-0.734-0.536-1.047-0.854l-7.525-8.073
						c-2.618-2.828-5.277-5.614-7.934-8.402c-5.299-5.591-10.633-11.147-16.037-16.631c-0.069-0.069-0.163-0.162-0.235-0.229
						c-3.477-3.27-8.946-3.102-12.216,0.375c-3.27,3.477-3.102,8.946,0.375,12.216c5.609,5.274,11.288,10.477,17.001,15.644
						c2.85,2.591,5.698,5.184,8.585,7.735l4.316,3.844l2.158,1.922c0.77,0.663,1.247,1.159,2.57,2.245
						c1.163,0.916,2.423,1.704,3.752,2.335c0.332,0.158,0.668,0.308,1.008,0.446l0.512,0.202l0.373,0.134l1.362,0.482l5.471,1.873
						l10.947,3.731c7.329,2.411,14.658,4.825,22.062,7.051L278.567,248.276z"/>
					<g>
						<g>
							<g>
								<g>
									<g>
										
											<rect x="198.193" y="415.605" transform="matrix(0.9976 -0.0696 0.0696 0.9976 -29.3593 15.2764)" style="fill:#D97868;" width="12.691" height="26.682"/>
										<g>
											<path style="fill:#F8F5FC;" d="M194.319,447.466l43.809-0.151l-23.178-11.334c-0.503-0.246-1.082-0.288-1.615-0.118
												l-4.704,1.504c-0.774,0.247-1.476,0.677-2.048,1.253l-0.432,0.435c-0.841,0.846-1.984,1.324-3.176,1.328l0,0
												c-1.22,0.004-2.389-0.487-3.24-1.362l-2.358-2.424c-0.383-0.394-1.05-0.19-1.148,0.35L194.319,447.466z"/>
											<path style="fill:none;stroke:#05233A;stroke-width:1.0059;stroke-miterlimit:10;" d="M206.268,448.319
												c0,0-6.556-8.185-10.55-8.559"/>
											<path style="fill:#D8CFE2;" d="M194.052,448.936l0.001,0.201c0,0.021,0,0.041,0.001,0.062
												c0.035,3.063,2.676,5.461,5.739,5.451l33.18-0.114c1.519-0.005,2.965-0.674,3.947-1.834
												c0.791-0.938,1.22-2.137,1.216-3.364l-0.007-2.022l-43.809,0.151L194.052,448.936z"/>
										</g>
										<g style="opacity:0.12;">
											<g>
												<path style="fill:#D5CAE0;" d="M206.268,448.319c0,0-6.556-8.185-10.55-8.559"/>
											</g>
										</g>
									</g>
								</g>
								<g>
									<g>
										
											<rect x="156.992" y="415.605" transform="matrix(0.9976 -0.0696 0.0696 0.9976 -29.4595 12.4089)" style="fill:#D97868;" width="12.691" height="26.682"/>
										<g>
											<path style="fill:#FFFFFF;" d="M153.118,447.466l43.809-0.151l-23.178-11.334c-0.503-0.246-1.082-0.288-1.615-0.118
												l-4.704,1.504c-0.773,0.247-1.476,0.677-2.048,1.253l-0.432,0.435c-0.841,0.846-1.983,1.324-3.176,1.328l0,0
												c-1.22,0.004-2.389-0.487-3.24-1.362l-2.358-2.424c-0.383-0.394-1.05-0.19-1.148,0.35L153.118,447.466z"/>
											<path style="fill:none;stroke:#05233A;stroke-width:1.0059;stroke-miterlimit:10;" d="M165.067,448.319
												c0,0-6.555-8.185-10.55-8.559"/>
											<path style="fill:#E6DDED;" d="M152.852,448.936l0.001,0.201c0,0.021,0,0.041,0.001,0.062
												c0.035,3.063,2.676,5.461,5.739,5.451l33.18-0.114c1.519-0.005,2.965-0.674,3.947-1.834
												c0.791-0.938,1.22-2.137,1.216-3.364l-0.007-2.022l-43.809,0.151L152.852,448.936z"/>
										</g>
									</g>
								</g>
							</g>
							<g>
								<path style="fill:#00AAD1;" d="M157.272,250.533c0,0-7.685,12.747-7.685,36.661c0,23.914,6.643,139.484,6.643,139.484
									h14.739l4.575-132.084h2.857l18.827,132.06l14.569,0.048c0,0-1.632-168.089-23.525-176.169H157.272z"/>
								<g>
									<g>
										
											<rect x="175.121" y="293.65" transform="matrix(0.9989 -0.047 0.047 0.9989 -13.6117 8.745)" style="fill:#312F3F;" width="8.443" height="0.931"/>
									</g>
								</g>
							</g>
						</g>
						<g>
							<g>
								<path style="fill:#D97868;" d="M190.766,181.058l2.608-6.232l10.617,2.993l-2.042,7.463l-0.707,2.579l-1.37,4.991
									l-0.491,1.8c-1.638,2.44-4.716,3.687-7.705,2.842c-2.989-0.845-4.963-3.515-5.079-6.456l0.055-0.121l1.044-2.514
									L190.766,181.058z"/>
								<g>
									<g>
										<g>
											<g>
												<g>
													<g>
														<g>
															<g>
																<path style="fill:#BB5F52;" d="M202.943,181.647c0,0-5.395-0.882-10.126-5.437c0,0,0.744,5.485,9.238,8.682
																	L202.943,181.647z"/>
															</g>
														</g>
													</g>
												</g>
											</g>
										</g>
									</g>
								</g>
							</g>
							<g>
								<g>
									<g>
										<g>
											<path style="fill:#13BCD8;" d="M198.274,268.686l-48.686-5.661c0,0,12.057-25.304,14.776-50.198
												c1.99-18.175,6.971-23.233,11.731-24.925c1.6-0.574-1.932-1.834-0.49-2.829l9.838,2.214l15.96,4.462
												c0.338,0.092,0.667,0.205,0.995,0.318c2.523,0.923,4.718,2.615,6.185,4.882c5.359,8.312,2.515,22.849-0.52,36.541
												C204.011,251.768,198.274,268.686,198.274,268.686z"/>
										</g>
									</g>
								</g>
								<path style="fill:#D97868;" d="M202.396,192.067c-0.718,2.462-5.057,3.385-9.724,2.082c-4.688-1.303-7.918-4.38-7.231-6.852
									v-0.01l15.96,4.462C201.74,191.841,202.068,191.954,202.396,192.067z"/>
							</g>
							<g>
								<g>
									<path style="fill:#5B353D;" d="M225.619,158.759c-0.207,1.616-2.235,2.764-2.772,4.232c-0.555,1.515,0.239,3.7-0.622,5.021
										c-0.874,1.342-3.199,1.499-4.339,2.602c-1.145,1.109-1.377,3.426-2.738,4.254c-1.355,0.824-3.517-0.037-5.037,0.47
										c-1.495,0.499-2.707,2.49-4.313,2.644c-1.555,0.15-3.125-1.563-4.74-1.77c-1.616-0.207-3.567,1.053-5.035,0.516
										c-1.515-0.555-2.185-2.788-3.505-3.648c-1.343-0.874-3.652-0.587-4.755-1.727c-1.109-1.145-0.747-3.446-1.575-4.808
										c-0.824-1.355-3.034-2.093-3.541-3.613c-0.498-1.495,0.821-3.409,0.667-5.014c-0.15-1.556-1.821-3.179-1.614-4.794
										c0.207-1.616,2.235-2.764,2.773-4.232c0.555-1.515-0.239-3.7,0.621-5.021c0.874-1.342,3.199-1.499,4.339-2.602
										c1.145-1.109,1.376-3.426,2.738-4.254c1.355-0.824,3.517,0.037,5.036-0.47c1.495-0.499,2.707-2.49,4.313-2.644
										c1.556-0.15,3.125,1.563,4.741,1.77c1.616,0.207,3.567-1.053,5.035-0.516c1.515,0.555,2.185,2.788,3.505,3.648
										c1.343,0.874,3.652,0.588,4.755,1.727c1.109,1.145,0.747,3.446,1.575,4.807c0.824,1.355,3.034,2.094,3.541,3.613
										c0.499,1.495-0.821,3.408-0.667,5.014C224.155,155.521,225.826,157.144,225.619,158.759z"/>
									<g>
										<g>
											<path style="fill:#D97868;" d="M190.944,161.695c-0.219-0.388-0.676-0.537-1.074-0.388c-0.05,0.01-0.099,0.03-0.139,0.06
												l-0.716,0.418c-0.01,0-0.02,0.01-0.02,0.01c0.01,0.089,0.03,0.189,0.04,0.288c0.06,0.437,0.129,0.885,0.209,1.322
												c0,0.01,0,0.03,0.01,0.04l0.05-0.03c0.079,0.02,0.169,0.03,0.249,0.01c0.119-0.01,0.238-0.04,0.348-0.109l0.716-0.408
												c0.288-0.169,0.447-0.467,0.447-0.765C191.063,161.983,191.024,161.834,190.944,161.695z"/>
											<path style="fill:#D97868;" d="M217.634,165.681c0,0,0,0,0,0.01c-0.02,0.079-0.06,0.159-0.089,0.239
												c-0.239,0.606-0.497,1.243-0.785,1.909v0.01c-0.626,1.451-1.362,3.052-2.236,4.801c-0.428,0.845-0.795,1.72-1.183,2.585
												c-0.089,0.189-0.179,0.378-0.278,0.567c-2.903,5.586-9.801,7.753-15.388,4.841c-2.336-1.213-4.066-3.111-5.089-5.338
												c0,0-0.04-0.099-0.119-0.288c-0.149-0.338-0.288-0.696-0.398-1.064c-0.03-0.099-0.07-0.209-0.099-0.318
												c-0.745-2.117-1.988-5.984-2.714-10.189l0.05-0.03c0.199,0.05,0.408,0.01,0.596-0.099l0.716-0.408
												c0.288-0.169,0.447-0.467,0.447-0.765c0-0.159-0.04-0.308-0.119-0.447c-0.249-0.427-0.785-0.567-1.213-0.328
												l-0.716,0.418c-0.01,0-0.02,0.01-0.02,0.01c-0.199-1.481-0.318-2.972-0.318-4.424c0-2.604,0.388-5.07,1.412-7.048
												c0.089-0.238,0.179-0.477,0.288-0.706c3.081-7.117,11.193-10.905,18.598-8.589c6.6,2.058,10.587,7.803,10.915,13.936
												c0,0,0,0,0,0.01C219.95,155.194,220.616,158.017,217.634,165.681z"/>
											<g>
												<g>
													<g>
														<path style="fill:#BB5F52;" d="M206.104,169.898c0.266-0.045,0.513-0.169,0.708-0.362
															c0.267-0.264,0.41-0.632,0.39-1.007l-0.23-4.173c-0.01-0.185-0.169-0.327-0.353-0.317
															c-0.193,0.007-0.327,0.168-0.318,0.354l0.23,4.173c0.011,0.186-0.057,0.361-0.19,0.493
															c-0.132,0.131-0.307,0.197-0.496,0.185l-1.488-0.1c-0.19-0.011-0.346,0.128-0.358,0.313
															c-0.012,0.185,0.128,0.345,0.313,0.357l1.489,0.1C205.902,169.919,206.004,169.914,206.104,169.898z"/>
													</g>
												</g>
												<g>
													<g>
														<path style="fill:#262429;" d="M211.302,164.264c-0.104,0.853,0.503,1.628,1.356,1.732
															c0.853,0.104,1.628-0.503,1.732-1.356c0.104-0.853-0.503-1.628-1.356-1.732
															C212.181,162.804,211.406,163.411,211.302,164.264z"/>
														<path style="fill:#262429;" d="M211.471,164.661c0.208-0.593,0.594-1.126,1.085-1.205
															c0.508-0.113,0.966,0.141,1.464,0.465c0.499,0.317,1.024,0.729,1.743,0.889c0.381,0.076,0.73,0.003,1.044-0.08
															c0.316-0.101,0.648-0.255,0.827-0.537c-0.287,0.143-0.589,0.162-0.882,0.157c-0.301-0.008-0.592-0.037-0.813-0.142
															c-0.482-0.218-0.944-0.62-1.501-0.955c-0.521-0.354-1.344-0.629-2.061-0.325c-0.357,0.148-0.623,0.449-0.755,0.765
															C211.48,164.007,211.442,164.343,211.471,164.661z"/>
													</g>
													<path d="M218.551,162.945c-0.753-1.135-1.782-2.087-2.991-2.801c-0.598-0.358-1.242-0.726-1.963-0.802
														c-0.71-0.101-1.454,0.005-2.108,0.316c-0.029,0.014-0.041,0.048-0.027,0.077c0.006,0.013,0.017,0.023,0.03,0.028
														l0.004,0.002c0.679,0.282,1.283,0.406,1.876,0.627c0.582,0.207,1.215,0.272,1.808,0.522
														c1.184,0.474,2.305,1.201,3.287,2.097c0.02,0.022,0.055,0.023,0.076,0.003
														C218.561,162.997,218.563,162.966,218.551,162.945z"/>
												</g>
												<g>
													<g>
														<path style="fill:#262429;" d="M203.087,162.299c-0.104,0.853-0.88,1.46-1.732,1.356
															c-0.853-0.104-1.46-0.879-1.356-1.732c0.104-0.853,0.879-1.46,1.732-1.356
															C202.584,160.671,203.191,161.446,203.087,162.299z"/>
														<path style="fill:#262429;" d="M202.826,162.643c0.105-0.301,0.148-0.637,0.087-0.975
															c-0.053-0.338-0.239-0.695-0.55-0.924c-0.623-0.467-1.488-0.398-2.078-0.18c-0.622,0.191-1.166,0.47-1.686,0.566
															c-0.24,0.049-0.53,0.007-0.824-0.057c-0.286-0.065-0.575-0.156-0.819-0.364c0.106,0.316,0.392,0.546,0.674,0.72
															c0.286,0.156,0.607,0.311,0.994,0.328c0.736,0.017,1.345-0.256,1.906-0.444c0.562-0.196,1.067-0.332,1.533-0.1
															C202.52,161.407,202.767,162.018,202.826,162.643z"/>
													</g>
													<path d="M196.41,159.04c1.197-0.579,2.479-0.955,3.749-1.071c0.64-0.07,1.265,0.048,1.882,0.016
														c0.631-0.042,1.246,0.011,1.977-0.065l0.005-0.001c0.032-0.003,0.055-0.032,0.051-0.063
														c-0.002-0.015-0.009-0.028-0.019-0.037c-0.538-0.485-1.221-0.799-1.93-0.905c-0.713-0.133-1.435,0.036-2.11,0.208
														c-1.362,0.339-2.62,0.958-3.666,1.831c-0.023,0.019-0.026,0.053-0.007,0.076
														C196.358,159.048,196.389,159.051,196.41,159.04z"/>
												</g>
												<g>
													<path style="fill:#BB5F52;" d="M203.626,175.886c0.066,0.018,0.107,0.028,0.121,0.032
														c0.246,0.056,0.491-0.096,0.549-0.343c0.058-0.245-0.068-0.482-0.341-0.55c-0.026-0.002-3.068-0.748-4.568-3.532
														c-0.119-0.223-0.397-0.307-0.62-0.186c-0.223,0.12-0.307,0.397-0.186,0.62
														C200.118,174.783,202.993,175.712,203.626,175.886z"/>
												</g>
											</g>
										</g>
										<g>
											<g>
												<path style="fill:#5B353D;" d="M211.402,149.069c0,0-2.017,3.949-6.639,6.627c-2.264,1.312-4.957,1.496-7.496,0.865
													c-1.12-0.278-2.86-0.864-4.915,0.287c-0.802,0.45-1.393,1.194-1.717,2.055c-0.611,1.625-1.69,4.538-0.712,7.794
													c0,0-4.067-8.506-0.36-16.141c1.784-3.673,5.658-10.79,15.37-10.405c9.712,0.385,12.97,5.418,15.114,10.741
													c2.145,5.323-0.74,11.247-0.74,11.247S211.652,155.928,211.402,149.069z"/>
											</g>
										</g>
										<path style="fill:#D97868;" d="M191.623,161.776c0,0,0.21-3.064-2.691-2.847c-2.901,0.217-2.675,7.84,3.309,7.588
											L191.623,161.776z"/>
									</g>
								</g>
								<g>
									<g>
										<path style="fill:#FFFFFF;" d="M218.736,168.814c-2.062,10.821-9.744,18.729-17.734,18.729
											c-0.697,0-1.395-0.062-2.092-0.185c-8.606-1.528-14.021-11.908-12.329-23.642c0.113-0.8,0.626-1.508,1.405-1.939
											l0.133-0.072l0.451-0.256l0.564-0.308c0.318-0.185,0.728-0.062,0.903,0.256c0.185,0.318,0.062,0.728-0.256,0.903
											l-0.933,0.523l-0.051,0.031l-0.164,0.092c-0.41,0.226-0.677,0.574-0.738,0.964c-1.58,11.016,3.354,20.74,11.252,22.134
											c7.98,1.415,16.175-6.431,18.278-17.478c0.031-0.133,0.021-0.287-0.02-0.431l-0.226-0.739v-0.01
											c0.298-0.687,0.564-1.344,0.81-1.969l0.472,1.621l0.215,0.718C218.777,168.107,218.797,168.476,218.736,168.814z"/>
										<path style="fill:#E6DDED;" d="M190.662,161.511c0,0.308-0.164,0.615-0.462,0.79l-0.739,0.421
											c-0.195,0.113-0.41,0.154-0.615,0.103c-0.021,0-0.041,0-0.062-0.01c-0.236-0.051-0.441-0.195-0.574-0.421
											c-0.082-0.144-0.123-0.297-0.123-0.461c0-0.082,0.01-0.154,0.031-0.226c0.062-0.215,0.195-0.421,0.41-0.554
											c0,0,0.01-0.01,0.021-0.01l0.739-0.431c0.441-0.246,0.995-0.103,1.251,0.339
											C190.621,161.193,190.662,161.347,190.662,161.511z"/>
										<path style="fill:#E6DDED;" d="M218.459,167.04c-0.113,0.215-0.318,0.39-0.564,0.462
											c-0.082,0.021-0.164,0.031-0.246,0.031c-0.164,0-0.538-0.145-0.682-0.238v-0.01c0.298-0.687,0.564-1.344,0.81-1.969
											c0.031-0.082,0.072-0.164,0.092-0.246c0.102,0.103,0.384,0.33,0.425,0.484l0.236,0.82
											C218.592,166.599,218.561,166.845,218.459,167.04z"/>
									</g>
									<g>
										<path style="fill:#FFA350;" d="M201.021,187.902c-0.726,0-1.451-0.063-2.171-0.19c-4.366-0.774-8.036-3.748-10.388-8.399
											c-0.144-0.284-0.019-0.637,0.269-0.773l0.832-0.393c0.277-0.131,0.603-0.011,0.741,0.263
											c2.054,4.048,5.199,6.626,8.903,7.282c4.439,0.787,9.18-1.39,12.775-5.836c0.193-0.238,0.537-0.287,0.78-0.1l0.73,0.56
											c0.252,0.193,0.299,0.564,0.1,0.812C210.084,185.477,205.535,187.902,201.021,187.902z"/>
										<path style="fill:#FFA350;" d="M245.999,229.669l-2.554,0.533c-5.734-4.39-13.293-6.729-20.329-8.913
											c-5.928-1.836-11.529-3.57-15.303-6.349c-10.801-7.939-9.642-23.724-9.272-26.996c0.01-0.103,0.051-0.195,0.123-0.277
											c0.113-0.164,0.308-0.246,0.523-0.215l0.913,0.133c0.195,0.031,0.349,0.144,0.421,0.308
											c0.051,0.092,0.072,0.195,0.061,0.298c-0.308,2.995-1.313,17.919,8.452,25.099c3.487,2.564,8.934,4.257,14.688,6.041
											C231.177,221.638,239.732,224.294,245.999,229.669z"/>
									</g>
								</g>
								<path style="fill:#D97868;" d="M190.82,163.051l-0.99-0.268c0.419-1.548-0.81-2.077-0.951-2.132l0.362-0.96
									C190.023,159.983,191.359,161.061,190.82,163.051z"/>
							</g>
						</g>
					</g>
					<g>
						<g>
							<path style="fill:#FFCBA4;" d="M235.39,202.306c0.161,2.077,0.481,4.137,0.801,6.196c0.36,2.315,0.719,4.631,1.079,6.946
								c0.345,2.222,0.703,4.486,1.712,6.496c0.558,1.113,1.288,10.071,2.029,11.072c1.109,1.498,2.232-4.954,3.341-3.455
								c0.518,0.7,1.054,1.417,1.794,1.875c2.146,1.329,4.899,0.01,7.423,0.035c1.716,0.017,3.351,0.674,5.006,1.127
								c1.655,0.453,3.499,0.688,5.029-0.09c2.057-1.046,2.885-3.578,2.993-5.883c0.108-2.305-0.297-4.647,0.175-6.906
								c0.401-1.919,1.414-3.657,1.941-5.546c0.607-2.173,0.554-4.469,0.496-6.725c-0.072-2.788-0.144-5.575-0.215-8.363
								c-0.068-2.645-0.139-5.31-0.712-7.894c-0.573-2.583-1.689-5.111-3.581-6.961c-2.574-2.518-6.387-3.529-9.971-3.171
								c-3.584,0.358-6.951,1.967-9.874,4.071c-1.3,0.936-2.526,1.972-3.703,3.058c-1.099,1.014-2.116,2.12-3.24,3.105
								c-0.642,0.563-1.392,1.077-1.846,1.816c-0.611,0.996-0.639,2.272-0.712,3.402c-0.111,1.714-1.344-2.369-1.238-0.655
								C234.129,196.072,235.373,202.091,235.39,202.306z"/>
							<g>
								<path style="fill:#FCB19D;" d="M258.555,231.749c-0.909,2.83-3.546,4.904-6.682,4.915c-3.147,0.02-5.804-2.013-6.743-4.843
									l0.02-0.133l0.307-2.728l0.919-7.99l0.603-5.16l0.031-0.317l0.153-1.308l11.147-0.072l0.041,2.779l0.041,3.137l0.031,1.9
									l0.031,2.708l0.072,5.221L258.555,231.749z"/>
								<g>
									<g>
										<g>
											<g>
												<g>
													<g>
														<g>
															<g>
																<g>
																	<g>
																		<path style="fill:#EA8375;" d="M258.392,220.029c-6.6-0.215-10.156-2.983-11.413-4.22l0.031-0.317
																			c5.395,2.248,11.055,1.441,11.341,1.4L258.392,220.029z"/>
																	</g>
																</g>
															</g>
														</g>
													</g>
												</g>
											</g>
										</g>
									</g>
								</g>
							</g>
							<g>
								<g>
									<g>
										<g>
											<path style="fill:#FCB19D;" d="M236.893,189.691c-0.041,0.249-0.076,0.498-0.104,0.748l-0.002,0.009
												c-1.703,7.251,4.842,18.109,7.413,22.005c0.062,0.1,0.125,0.191,0.18,0.281c0.186,0.33,0.407,0.639,0.632,0.931
												c0.122,0.162,0.186,0.254,0.186,0.254c1.522,1.896,3.653,3.31,6.187,3.919c6.083,1.461,12.211-2.286,13.671-8.369
												c0.049-0.204,0.092-0.408,0.129-0.611c0.168-0.924,0.312-1.856,0.515-2.773c3.125-14.093,1.068-18.078,0.93-18.324
												c0,0,0-0.001,0-0.001c-0.009-0.002-0.007-0.011-0.007-0.011c-1.791-5.823-7.016-10.406-13.869-10.805
												C245.064,176.494,238.151,182.092,236.893,189.691z"/>
											<path d="M251.314,218.136"/>
											<g>
												<g>
													<path style="fill:#EA8375;" d="M256.93,205.456c0.245-0.107,0.454-0.287,0.595-0.519
														c0.194-0.319,0.243-0.707,0.133-1.064l-1.225-3.966c-0.055-0.176-0.242-0.274-0.417-0.22
														c-0.184,0.053-0.275,0.241-0.221,0.417l1.225,3.966c0.055,0.177,0.032,0.362-0.065,0.521
														c-0.096,0.158-0.248,0.263-0.434,0.298l-1.458,0.261c-0.186,0.035-0.302,0.206-0.27,0.387
														c0.033,0.181,0.206,0.301,0.387,0.269l1.459-0.262C256.74,205.526,256.837,205.496,256.93,205.456z"/>
												</g>
												<g>
													<g>
														<path style="fill:#262429;" d="M260.584,198.777c0.105,0.847,0.876,1.448,1.723,1.343
															c0.847-0.105,1.448-0.876,1.343-1.723c-0.105-0.847-0.876-1.448-1.723-1.343
															C261.08,197.159,260.479,197.93,260.584,198.777z"/>
														<path style="fill:#262429;" d="M260.843,199.119c0.057-0.621,0.302-1.228,0.755-1.422
															c0.462-0.231,0.964-0.097,1.523,0.096c0.557,0.186,1.162,0.456,1.894,0.438c0.386-0.019,0.704-0.173,0.987-0.328
															c0.28-0.173,0.563-0.402,0.668-0.716c-0.242,0.207-0.528,0.298-0.813,0.363c-0.292,0.064-0.579,0.106-0.818,0.058
															c-0.517-0.094-1.058-0.37-1.676-0.559c-0.587-0.215-1.446-0.282-2.064,0.182c-0.309,0.229-0.493,0.583-0.544,0.918
															C260.694,198.487,260.738,198.82,260.843,199.119z"/>
													</g>
													<path style="fill:#FFCBA4;" d="M267.252,195.763c-0.999-0.913-2.22-1.583-3.556-1.98
														c-0.662-0.201-1.371-0.401-2.085-0.3c-0.708,0.073-1.4,0.354-1.955,0.812c-0.024,0.02-0.028,0.056-0.008,0.081
														c0.009,0.011,0.022,0.018,0.036,0.02l0.005,0.001c0.721,0.108,1.334,0.083,1.958,0.153
														c0.611,0.06,1.236-0.03,1.868,0.068c1.254,0.172,2.51,0.603,3.672,1.23c0.025,0.016,0.058,0.009,0.074-0.016
														C267.275,195.811,267.269,195.781,267.252,195.763z"/>
												</g>
												<g>
													<g>
														<path style="fill:#262429;" d="M252.195,198.859c0.105,0.847-0.497,1.618-1.343,1.723
															c-0.847,0.105-1.618-0.496-1.723-1.343c-0.105-0.847,0.496-1.618,1.343-1.723
															C251.318,197.411,252.09,198.012,252.195,198.859z"/>
														<path style="fill:#262429;" d="M252.027,199.253c0.029-0.315-0.01-0.649-0.151-0.961
															c-0.132-0.313-0.397-0.612-0.752-0.758c-0.713-0.3-1.529-0.025-2.046,0.327c-0.554,0.334-1.011,0.734-1.489,0.951
															c-0.219,0.105-0.509,0.134-0.807,0.143c-0.292,0.006-0.592-0.013-0.876-0.154c0.178,0.279,0.508,0.432,0.822,0.531
															c0.313,0.081,0.659,0.154,1.037,0.077c0.714-0.161,1.234-0.57,1.73-0.886c0.494-0.324,0.948-0.577,1.453-0.465
															C251.434,198.136,251.819,198.665,252.027,199.253z"/>
													</g>
													<path style="fill:#FFCBA4;" d="M244.977,197.324c1.014-0.845,2.16-1.516,3.355-1.934
														c0.599-0.221,1.23-0.258,1.817-0.437c0.598-0.193,1.204-0.289,1.889-0.538l0.004-0.002
														c0.03-0.011,0.045-0.044,0.034-0.073c-0.005-0.014-0.015-0.025-0.027-0.031c-0.635-0.338-1.369-0.477-2.078-0.408
														c-0.719,0.043-1.374,0.38-1.984,0.708c-1.231,0.654-2.295,1.553-3.093,2.645c-0.017,0.024-0.012,0.057,0.011,0.074
														C244.928,197.344,244.959,197.34,244.977,197.324z"/>
												</g>
												<g>
													<g>
														<g>
															<path style="fill:#EA8375;" d="M255.981,211.823c0.069,0.001,0.11,0.001,0.124,0.001
																c0.251-0.005,0.45-0.211,0.446-0.462c-0.003-0.25-0.181-0.449-0.461-0.448c-0.025,0.004-3.137,0.018-5.252-2.305
																c-0.168-0.186-0.456-0.2-0.642-0.03c-0.186,0.169-0.2,0.456-0.03,0.642
																C252.336,211.603,255.329,211.807,255.981,211.823z"/>
														</g>
													</g>
												</g>
											</g>
										</g>
									</g>
								</g>
								<path style="fill:#FFCBA4;" d="M244.979,183.666c2.191,3.69,6.115,6.299,10.365,6.894c-0.199-0.725-0.397-1.451-0.595-2.177
									c2.465,1.68,5.39,2.678,8.368,2.856c-0.093-0.568-0.186-1.136-0.279-1.704c1.652,0.714,3.304,1.428,4.957,2.142
									c0.024-1.683-0.257-3.366-0.791-4.962c-1.262-3.772-3.986-7.033-7.471-8.948c-3.486-1.915-7.699-2.465-11.559-1.508
									c-1.287,0.319-2.586,0.834-3.46,1.831c-0.904,1.032-1.238,2.534-0.856,3.851c0.382,1.317,1.467,2.408,2.783,2.796"/>
								<path style="fill:#FFCBA4;" d="M239.145,198.417c1.605-0.469,2.796-1.794,3.839-3.102c1.515-1.899,2.913-3.891,4.185-5.96
									c1.107-1.8,2.143-3.742,2.252-5.853c0.109-2.11,2.291-3.523,0.296-4.221c-1.318-0.461-1.786-3.057-3.103-2.595
									c-4.962,1.744-6.343,3.996-7.224,5.079c-0.984,1.21-1.88,2.494-2.651,3.85c-0.771,1.355-1.42,2.784-1.886,4.273
									c-0.459,1.469-0.738,2.997-0.766,4.538c-0.018,0.965-0.091,2.242,0.689,2.957c0.966,0.886,2.505,1.333,3.787,1.157
									C238.76,198.514,238.955,198.472,239.145,198.417z"/>
								<path style="fill:#FCB19D;" d="M239.318,200.07c0,0-0.455-3.255-3.446-2.388c-2.99,0.866-1.073,8.8,5.138,7.217
									L239.318,200.07z"/>
							</g>
						</g>
						<g>
							<g>
								<g>
									<path style="fill:#FCB19D;" d="M318.197,449.708l-9.734,1.788c-2.189,0.41-4.418-0.469-5.747-2.258
										c-3.587-4.828-10.32-14.151-10.516-16.33c0,0-0.117-1.075-0.323-3.049c-0.274-2.57-0.704-6.655-1.251-11.874h12.578
										l0.469,16.545l13.809,14.435L318.197,449.708z"/>
									<path style="fill:#443B44;" d="M291.513,454.376h3.027v-12.271l10.554,12.271h24.436c0,0-1.295-4.959-7-5.28
										c0,0-5.451-0.142-11.122-0.263c-4.549-0.097-9.952-8.038-12.343-12.405c-0.478-0.874-4.077-6.595-7.552-6.595V454.376z"/>
								</g>
								<g>
									<g>
										<path style="fill:#FCB19D;" d="M359.081,449.702l-9.735,1.783c-2.189,0.409-4.417-0.471-5.745-2.26
											c-3.584-4.83-10.313-14.156-10.507-16.336c0,0-0.117-1.075-0.321-3.049c-0.272-2.57-0.7-6.656-1.245-11.875l12.578,0.006
											l0.461,16.546l13.802,14.441L359.081,449.702z"/>
										<path style="fill:#443B44;" d="M332.395,454.357l3.027,0.001l0.006-12.271l10.548,12.276l24.436,0.012
											c0,0-1.292-4.96-6.997-5.283c0,0-5.451-0.145-11.122-0.269c-4.548-0.099-9.948-8.043-12.337-12.411
											c-0.478-0.874-4.073-6.597-7.548-6.599L332.395,454.357z"/>
									</g>
									<path style="fill:#2F2F3F;" d="M340.551,314.806l-0.775-0.166l-46.421-10.137l-2.865-0.624l-0.081-0.018l-21.005-3.798
										c-1.698,1.905,1.667,5.508,0.896,7.893c-0.862,2.619-1.112,5.454-0.727,8.204c0.377,2.727,1.327,5.279,2.824,7.588
										c1.502,2.336,3.565,4.322,5.967,5.749c0.557,0.344,1.155,0.657,1.844,0.966c0.762,0.344,1.362,0.578,1.891,0.739
										c0.336,0.107,0.661,0.203,0.988,0.292l1.327,0.321l38.848,8.483l5.887,81.032l18.745-0.365l3.123-92.694
										C351.234,321.835,346.832,316.172,340.551,314.806z"/>
									<path style="fill:#393849;" d="M221.575,322.524l0.001,0.006c0.444,3.453,1.844,6.704,4.047,9.402
										c2.216,2.732,5.276,4.819,8.619,5.88c0.827,0.253,1.694,0.464,2.568,0.624c0.799,0.124,1.679,0.211,2.52,0.251l1.167,0.037
										l37.331,1.195l0.101,0.915l8.773,79.671l18.717-1.075l-0.491-94.277c-0.038-7.264-5.75-13.145-13.004-13.386l-39.547-1.265
										l-0.248-0.162l-19.535-12.732l-8.746,13.499c-0.207,0.364-0.408,0.744-0.6,1.128
										C221.726,315.338,221.114,319.092,221.575,322.524z M249.288,326.298l0.177-0.271l-0.039,0.065l-0.103,0.157l-0.053,0.077
										L249.288,326.298z"/>
									<polygon style="fill:#393849;" points="229.681,294.176 229.674,306.247 251.801,312.709 271.391,311.109 268.808,294.115 
																			"/>
								</g>
							</g>
							<g>
								<g>
									<g>
										<path style="fill:#EA8375;" d="M320.885,311.953l8.379,4.886c0.465,0.271,1.061,0.133,1.359-0.315l0,0
											c0.302-0.454,0.192-1.065-0.249-1.386l-2.034-1.478c-1.133-0.824-2.473-1.318-3.869-1.427L320.885,311.953z"/>
										<path style="fill:#FCB19D;" d="M304.994,304.763c0.11,0.163,0.219,0.33,0.333,0.473c0.234,0.298,0.478,0.561,0.716,0.797
											l-0.002,0c1.101,1.588,2.462,2.978,4.027,4.112l1.286,0.932l0,0c0.126,0.126,0.256,0.244,0.389,0.352
											c0.016,0.013,0.033,0.022,0.049,0.034l6.052,6.304c0.482,0.503,1.273,0.589,1.856,0.172
											c0.639-0.458,0.786-1.347,0.328-1.986l-2.086-2.912c1.281-0.065,2.197-0.268,2.197-0.268
											c0.924,0.102,1.869,0.228,2.816,0.384c2.676,0.431,5.365,1.079,7.705,2.306c0.251,0.121,0.497,0.255,0.725,0.396
											c0.584,0.336,1.048-0.012,1.341-0.312c0.292-0.3,0.182-0.755-0.128-1.097c-2.894-3.213-8.448-6.141-11.995-7.77
											c-1.931-0.891-3.937-1.78-5.864-2.658c-0.523-0.239-1.706-1.546-3.115-2.952c-0.103-0.134-0.204-0.269-0.329-0.389
											L304.994,304.763z"/>
									</g>
									<path style="fill:#877168;" d="M311.346,301.75l1.652-1.917l-26.444-22.788l-3.395-40.654
										c-0.02-0.227-0.05-0.474-0.088-0.702c-0.385-2.333-1.659-4.378-3.587-5.759c-1.928-1.381-4.275-1.929-6.608-1.544
										c-2.337,0.387-4.384,1.66-5.762,3.585c-1.38,1.926-1.927,4.273-1.54,6.61l7.161,43.318
										c0.277,1.657,1.166,3.135,2.501,4.163l30.168,23.047l1.537-2.012l0,0L311.346,301.75L311.346,301.75z"/>
								</g>
								<g>
									<g>
										<path style="fill:#EA8375;" d="M237.323,336.004l3.394,9.086c0.188,0.504-0.049,1.068-0.541,1.286l0,0
											c-0.499,0.22-1.083,0.009-1.324-0.48l-1.111-2.256c-0.62-1.257-0.879-2.66-0.75-4.056L237.323,336.004z"/>
										<path style="fill:#FCB19D;" d="M232.935,319.122c0.142,0.136,0.288,0.272,0.409,0.408
											c0.254,0.282,0.472,0.566,0.664,0.841l0-0.002c1.378,1.354,2.517,2.932,3.369,4.666l0.7,1.426h0
											c0.103,0.146,0.197,0.293,0.281,0.443c0.01,0.018,0.016,0.037,0.026,0.054l5.186,7.034
											c0.414,0.56,0.365,1.355-0.146,1.858c-0.56,0.552-1.461,0.546-2.013-0.013l-2.516-2.55
											c-0.281,1.251-0.637,2.12-0.637,2.12c-0.056,0.928-0.093,1.881-0.099,2.84c-0.029,2.71,0.153,5.47,0.965,7.984
											c0.077,0.268,0.167,0.534,0.268,0.782c0.232,0.632-0.19,1.031-0.535,1.268c-0.345,0.237-0.775,0.051-1.059-0.312
											c-2.675-3.398-4.618-9.368-5.622-13.139c-0.551-2.054-1.087-4.182-1.625-6.23c-0.146-0.556-1.234-1.944-2.381-3.57
											c-0.114-0.124-0.23-0.247-0.328-0.391L232.935,319.122z"/>
									</g>
									<g>
										<g>
											<g>
												<path style="fill:#967B6F;" d="M226.385,325.58l-12.414-18.374l-3.113-4.587l-1.557-2.294l-0.778-1.147l-0.216-0.323
													c-0.125-0.201-0.252-0.401-0.367-0.607c-0.233-0.412-0.446-0.837-0.633-1.273c-0.752-1.743-1.116-3.657-1.053-5.569
													c0.031-0.955,0.167-1.91,0.407-2.838l0.321-1.353l1.269-5.398l10.106-43.194c1.115-4.764,5.88-7.723,10.645-6.608
													c4.764,1.115,7.723,5.881,6.608,10.645c-0.053,0.229-0.122,0.471-0.191,0.69l-13.562,42.237l-1.69,5.281l-0.418,1.317
													c-0.006-0.038-0.016-0.075-0.03-0.108c-0.028-0.067-0.072-0.118-0.122-0.153c-0.013-0.008-0.024-0.017-0.038-0.023
													c-0.008-0.002-0.01-0.008-0.019-0.008c0.012,0.03,0.103,0.18,0.151,0.265l0.696,1.198l1.392,2.397l2.785,4.794
													l11.178,19.151L226.385,325.58z"/>
											</g>
										</g>
									</g>
								</g>
								<g>
									<path style="fill:#FFFFFF;" d="M276.569,257.787c-7.632,32.711-11.855,35.157-11.855,35.157h-34.781l3.472-11.01
										c1.057-3.352,1.303-6.908,0.716-10.373l-6.406-37.842l1.831-1.18l44.491-2.208c0,0,1.152-1.263,1.947,0.483
										C277.729,234.673,279.987,243.141,276.569,257.787z"/>
									<path style="fill:#FCB19D;" d="M262.883,229.376c-0.096,5.517-4.597,9.958-10.136,9.958c-5.289,0-9.626-4.045-10.1-9.207
										l19.593-1.863C262.24,228.265,262.536,228.615,262.883,229.376z"/>
									<g>
										<path style="fill:#967B6F;" d="M271.118,300.063c-0.143-10.738,6.267-39.736,7.064-46.347
											c1.22-10.146-0.08-18.078-1.056-22.167c-0.432-1.811-1.022-3.174-2.876-3.339l-15.001-1.223l-0.981-0.082l-0.061,0.603
											l-3.147,31.715l-0.307,3.055l-0.562-2.146l-8.307-31.746l-0.153-0.572l-0.92,0.194l-20.089,4.15
											c-0.918,0.193-1.517,1.224-1.232,2.117l6.628,20.717l3.528,15.748c0.891,3.978,0.604,8.129-0.825,11.947l-5.572,17.375
											H271.118z"/>
										<rect x="254.241" y="262.277" style="fill:#776057;" width="1.022" height="31.94"/>
									</g>
								</g>
							</g>
						</g>
					</g>
					<g>
						<g>
							<g>
								<g>
									<path style="fill:#D97868;" d="M210.661,238.845l4.515,1.844c0.716,0.293,1.573,0.189,2.111-0.366
										c0.004-0.004,0.008-0.008,0.011-0.012l0,0c0.659-0.691,0.33-1.366-0.712-1.937l-5.29-2.771
										c-0.733-0.384-1.558-0.558-2.383-0.504l-9.236,0.606l-0.646-0.51l-3.198,7.132l4.692,1.946"/>
									<polygon style="fill:#D97868;" points="203.52,235.623 208.821,236.882 213.333,241.015 208.453,250.658 200.524,244.273 
																			"/>
									<g>
										<path style="fill:#D97868;" d="M219.454,246.109l-7.044-2.208l-0.119-0.036c-0.628-0.23-0.904-1.055-0.617-1.84
											c0.287-0.785,1.03-1.238,1.658-1.009l0.114,0.049l6.808,2.854c0.484,0.177,0.697,0.811,0.476,1.416
											C220.51,245.938,219.938,246.286,219.454,246.109z"/>
										<path style="fill:#D97868;" d="M218.826,249.239l-7.411-2.486l-0.125-0.041c-0.66-0.256-0.935-1.136-0.614-1.961
											c0.32-0.825,1.117-1.29,1.777-1.033l0.12,0.054l7.148,3.165c0.509,0.197,0.721,0.873,0.474,1.509
											C219.948,249.081,219.335,249.437,218.826,249.239z"/>
										<path style="fill:#D97868;" d="M216.563,251.564l-6.372-2.693l-0.108-0.045c-0.565-0.27-0.748-1.065-0.41-1.772
											c0.338-0.706,1.072-1.063,1.637-0.792l0.102,0.056l6.094,3.274c0.436,0.208,0.577,0.819,0.317,1.363
											C217.563,251.5,216.998,251.772,216.563,251.564z"/>
										<path style="fill:#D97868;" d="M214.215,253.911l-5.622-3.17l-0.095-0.053c-0.495-0.311-0.581-1.067-0.193-1.686
											c0.388-0.619,1.106-0.872,1.602-0.561l0.089,0.063l5.303,3.679c0.382,0.239,0.449,0.82,0.15,1.297
											C215.149,253.957,214.597,254.15,214.215,253.911z"/>
									</g>
								</g>
							</g>
						</g>
						<path style="fill:#00AAD1;" d="M170.589,221.488l2.027-4.146l9.405-19.303c1.064-2.192,1.216-4.671,0.43-6.976
							c-0.8-2.309-2.448-4.172-4.645-5.245c-2.192-1.064-4.671-1.216-6.977-0.43c-2.309,0.8-4.172,2.448-5.245,4.645
							c-0.115,0.234-0.224,0.499-0.32,0.746l-8.836,23.182l-3.577,9.388c-0.768,1.997-0.611,4.241,0.401,6.115
							c0.115,0.213,0.248,0.417,0.381,0.62c0.848,1.251,2.047,2.198,3.464,2.74c0.233,0.092,0.484,0.174,0.725,0.239l40.275,10.526
							l3.182-8.843L170.589,221.488z"/>
					</g>
				</g>
			</g>
		</g>
		
			<line style="fill:none;stroke:#000000;stroke-width:1.0257;stroke-miterlimit:10;" x1="34.977" y1="454.797" x2="465.023" y2="454.797"/>
	</g>
</g>
</svg>
